<svg width="653" height="183" viewBox="0 0 653 183" fill="none" xmlns="http://www.w3.org/2000/svg">
<path d="M264.867 181.848C259.47 180.882 255.016 177.83 253.607 174.134C252.744 171.87 252.77 171.61 253.998 170.203C255.201 168.824 255.878 168.696 261.95 168.696C267.441 168.696 269.068 168.448 271.378 167.262C273.887 165.974 277.3 162.849 279.621 159.717C281.454 157.242 286.596 145.669 287.006 143.093C287.245 141.593 287.798 139.431 288.236 138.289C288.674 137.146 289.221 134.36 289.451 132.098C289.99 126.81 289.047 125.511 285.173 126.206C283.752 126.46 281.901 127.147 281.061 127.731C278.621 129.426 267.022 129.215 263.302 127.407C261.739 126.648 260.034 125.82 259.513 125.567C255.37 123.555 250.812 119.078 250.304 116.521C250.114 115.562 249.551 113.978 249.053 113C247.812 110.565 247.839 100.447 249.094 97.2601C249.615 95.9376 250.041 94.2165 250.041 93.4356C250.041 92.6546 251.665 88.5471 253.649 84.3079C256.892 77.3812 258.546 74.5429 262.678 68.8184C264.378 66.4618 268.189 62.1997 268.595 62.1997C268.775 62.1997 270.21 61.2774 271.785 60.15C273.36 59.0226 275.719 57.9252 277.026 57.7112C278.334 57.4973 280.172 56.9127 281.109 56.4121C282.047 55.9115 284.708 55.5019 287.023 55.5019C290.513 55.5019 292.038 55.1016 295.951 53.1576C298.547 51.8683 300.896 50.8134 301.172 50.8134C302.19 50.8134 306.241 56.2214 306.241 57.5794C306.241 58.3515 306.646 59.933 307.142 61.0938C307.637 62.2546 308.336 67.1226 308.694 71.9116C309.053 76.7006 309.625 82.1258 309.966 83.9677C310.961 89.3423 310.788 113.05 309.686 122.48C307.357 142.393 306.05 148.062 301.37 158.556C299.347 163.091 297.856 165.458 294.026 170.214C290.821 174.193 284.17 179.412 282.303 179.412C281.662 179.412 280.814 179.826 280.418 180.331C280.022 180.837 277.928 181.458 275.763 181.712C273.598 181.966 271.258 182.279 270.564 182.408C269.869 182.537 267.306 182.285 264.867 181.848ZM281.517 111.355C285.687 110.095 288.106 107.921 290.005 103.729C291.212 101.063 291.362 99.6627 291.295 91.6704C291.245 85.5915 290.834 80.7626 290.041 76.9352C288.934 71.5881 288.757 71.2291 287.131 71.0299C284.181 70.6682 280.206 74.371 274.833 82.4866C270.484 89.0551 266.647 99.5325 267.308 103.036C268.207 107.804 272.629 112.327 276.466 112.404C277.28 112.419 279.554 111.948 281.517 111.355ZM522.914 157.979C520 157.249 518.366 155.317 517.736 151.856C516.24 143.643 517.523 140.565 522.44 140.565C523.96 140.565 526.162 140.152 527.333 139.648C528.505 139.144 531.149 138.532 533.21 138.288C535.271 138.044 537.26 137.58 537.63 137.255C538 136.931 539.44 136.458 540.829 136.204C542.218 135.949 544.634 135.142 546.197 134.409C547.759 133.676 549.606 132.808 550.301 132.481C550.996 132.153 552.274 131.578 553.143 131.203C555.817 130.048 562.649 124.877 563.153 123.626C563.275 123.323 563.893 122.563 564.525 121.938C566.062 120.419 565.369 116.445 563.384 115.395C562.618 114.99 561.47 114.158 560.833 113.546C560.195 112.934 558.808 112.434 557.75 112.434C556.693 112.434 554.619 111.982 553.143 111.429C551.666 110.876 549.286 110.411 547.854 110.395C546.421 110.38 544.113 109.906 542.724 109.345C541.334 108.783 539.345 108.083 538.303 107.788C537.261 107.493 534.846 106.492 532.936 105.564C524.735 101.577 522.201 97.5801 522.201 88.6319C522.201 83.2112 522.865 80.6539 525.41 76.2653C525.731 75.7127 526.254 74.6253 526.573 73.8488C528.007 70.3602 538.24 60.2189 543.121 57.4489C548.719 54.2723 555.562 50.8135 556.249 50.8135C556.691 50.8135 557.806 50.3655 558.728 49.8179C561.452 48.2001 565.893 46.6522 568.801 46.3071C571.398 45.999 571.665 46.1434 574.958 49.6369C578.091 52.9597 578.4 53.5545 578.392 56.2373C578.381 60.7521 577.857 61.9515 575.346 63.2293C574.074 63.8766 572.571 64.6428 572.006 64.9317C571.441 65.2205 569.878 65.6734 568.533 65.9376C565.327 66.5676 558.953 69.1182 556.242 70.8558C555.058 71.6147 553.379 72.6044 552.511 73.0551C551.643 73.5058 549.37 75.5676 547.46 77.637C543.479 81.9489 542.028 85.6155 543.24 88.2996C544.241 90.516 550.356 92.9147 558.611 94.3291C562.539 95.002 572.065 98.6212 575.559 100.768C581.213 104.241 585.34 111.615 584.419 116.596C583.359 122.328 581.998 127.589 581.362 128.413C580.635 129.354 579.63 131.103 578.325 133.699C577.908 134.528 577.328 135.206 577.035 135.206C576.743 135.206 575.461 136.43 574.188 137.925C571.262 141.36 567.142 144.243 559.141 148.453C551.13 152.67 548.299 153.96 547.06 153.96C546.516 153.96 545.176 154.387 544.082 154.909C541.624 156.082 529.517 158.674 526.937 158.581C525.895 158.542 524.085 158.272 522.914 157.979ZM34.9206 150.444C31.2869 148.35 27.5036 144.796 25.1166 141.234C24.0056 139.577 22.9399 138.07 22.7483 137.886C22.5568 137.701 21.6073 135.893 20.6382 133.867C19.6692 131.841 18.6133 129.731 18.2918 129.178C17.5843 127.962 15.827 123.558 13.8824 118.127C13.091 115.917 12.2108 113.505 11.9263 112.769C11.6418 112.032 11.1314 110.374 10.792 109.085C10.4525 107.795 9.47659 104.631 8.6232 102.052C7.76981 99.4734 6.88935 96.0509 6.66665 94.4466C6.44396 92.8424 5.84363 90.6721 5.3326 89.6239C4.82158 88.5758 4.40347 86.5523 4.40347 85.1274C4.40347 83.7024 4.00087 81.0501 3.50879 79.2335C3.01672 77.4168 2.30422 72.7657 1.92546 68.8977C1.5467 65.0297 0.971692 60.3579 0.647669 58.516C-0.331319 52.951 -0.159275 26.4232 0.886305 21.7207C1.38298 19.4869 1.96353 16.5326 2.17641 15.1556C2.57443 12.581 3.9176 11.2962 6.21124 11.2962C6.90386 11.2962 7.85931 10.8839 8.33444 10.3799C8.80958 9.87593 9.79877 9.26144 10.5326 9.01441C11.2665 8.76723 12.2116 8.12474 12.6328 7.58642C14.0768 5.74088 16.2 6.45665 18.6364 9.61044L20.9561 12.6132L20.6269 17.8154C20.4459 20.6765 20.0017 24.3738 19.6399 26.0315C18.7838 29.9539 18.7447 53.9975 19.586 59.1858C19.9444 61.3961 20.6416 66.2186 21.1354 69.9024C21.6292 73.5862 22.3583 78.2579 22.7556 80.284C23.6536 84.863 26.5221 93.01 27.2364 93.01C28.221 93.01 30.2933 90.3411 30.2933 89.0732C30.2933 88.3816 30.7013 87.4566 31.1999 87.0176C31.6986 86.5787 32.302 85.2608 32.5409 84.089C33.0942 81.3747 40.9001 65.4271 44.8943 58.8509C46.5723 56.088 48.3069 53.2248 48.749 52.488C50.7196 49.2034 56.3234 44.1484 58.4667 43.722C62.395 42.9403 66.1565 43.7598 67.6046 45.7123C68.3222 46.68 69.2465 47.847 69.6584 48.3054C70.65 49.409 72.717 52.7442 73.7034 54.8322C74.1385 55.7532 75.0468 57.4109 75.7218 58.516C76.3968 59.6212 78.8212 64.4436 81.1093 69.2326C83.3974 74.0215 85.5032 78.3919 85.7889 78.9445C87.0485 81.3807 88.3788 84.7943 88.7881 86.6404C89.0323 87.7419 89.6104 89.0444 90.0728 89.5348C90.5352 90.0252 90.9148 90.7817 90.9164 91.2159C90.918 91.65 91.6036 93.787 92.4399 95.9646C93.9437 99.8805 95.5961 101.723 96.6095 100.614C97.6179 99.5111 99.7559 92.6424 100.123 89.3266C100.327 87.4845 100.87 84.6209 101.331 82.9632C101.791 81.3054 102.328 77.0858 102.525 73.5861C102.721 70.0865 103.173 66.1703 103.528 64.8834C104.682 60.7038 104.313 47.6558 102.906 42.8947C101.547 38.2952 98.1216 32.3215 95.9253 30.72C94.3068 29.5398 93.7132 28.9395 91.3871 26.1306C89.0881 23.3545 88.8616 18.6638 91.0265 18.6638C91.7833 18.6638 93.3576 19.0301 94.525 19.4779C96.1907 20.1169 96.9119 20.1169 97.8764 19.4779C99.8794 18.1511 105.69 18.476 108.585 20.0767C110.991 21.4069 115.387 26.3187 117.511 30.0502C118.035 30.9711 119.156 33.8344 120.002 36.4131C121.479 40.9165 121.536 41.7495 121.466 57.5113C121.408 70.4055 121.183 74.5668 120.416 76.9352C119.88 78.5929 119.242 81.862 119 84.2C118.758 86.5379 118.166 89.2505 117.685 90.228C117.205 91.2055 116.809 92.863 116.807 93.9113C116.805 94.9596 116.399 96.6173 115.904 97.5951C115.41 98.5729 114.358 101.633 113.567 104.396C112.775 107.159 111.759 110.014 111.308 110.741C110.858 111.467 110.489 112.464 110.489 112.954C110.489 113.891 108.349 119.419 107.319 121.141C106.989 121.693 106.329 123.059 105.852 124.175C105.376 125.292 104.056 127.1 102.919 128.194C101.782 129.288 100.275 130.759 99.5691 131.464C98.8235 132.208 97.046 132.871 95.326 133.046C92.6905 133.315 91.9924 133.069 88.9561 130.807C85.0855 127.923 80.8101 123.431 80.8101 122.248C80.8101 121.813 80.2418 120.331 79.5472 118.957C78.8526 117.582 78.2753 115.778 78.2642 114.948C78.2533 114.118 77.8269 112.853 77.317 112.138C76.8071 111.423 76.3899 109.912 76.3899 108.779C76.3899 107.647 75.8216 105.596 75.127 104.221C74.4324 102.847 73.8551 100.892 73.844 99.8777C73.833 98.8633 73.4067 97.4483 72.8968 96.7332C72.3869 96.0181 71.9697 94.858 71.9697 94.1553C71.9697 93.4525 71.5668 91.9278 71.0743 90.7669C68.6866 85.1389 67.5458 82.0266 67.5075 81.0361C67.4845 80.4383 66.6309 78.4422 65.6108 76.6002C64.5907 74.7583 63.4588 72.464 63.0955 71.5017C62.7322 70.5394 61.7753 69.4333 60.9691 69.0437C59.6899 68.4254 59.3119 68.604 58.0011 70.4461C55.4217 74.0707 53.6976 77.2262 53.6771 78.3601C53.6661 78.9597 53.2311 79.8254 52.7102 80.284C52.1892 80.7426 51.763 81.7975 51.763 82.6283C51.763 83.459 51.3443 84.5073 50.8325 84.9578C50.3207 85.4083 49.7124 86.8489 49.4807 88.159C49.249 89.4692 48.6749 91.3226 48.205 92.2778C47.735 93.233 47.3488 94.557 47.3467 95.22C47.3445 95.8829 46.9403 97.2508 46.4485 98.2597C45.9566 99.2686 45.2625 101.59 44.9059 103.417C44.5494 105.245 43.9734 107.946 43.626 109.42C42.995 112.096 41.8153 119.224 41.2112 124.011C40.8106 127.185 42.6482 131.959 46.4686 137.671C50.0743 143.061 50.0806 144.776 46.5093 148.844C43.9744 151.731 43.5606 151.951 40.6585 151.951C38.6157 151.951 36.6312 151.43 34.9206 150.444ZM641.769 145.374C638.337 143.432 636.026 136.463 635.21 125.602C634.902 121.49 634.382 117.072 634.055 115.783C633.727 114.493 633.297 108.917 633.097 103.392C632.541 87.98 631.131 77.6049 629.593 77.6049C628.482 77.6049 626.781 79.6406 625.094 82.987C621.209 90.6958 617.553 99.1601 616.135 103.727C615.62 105.384 614.855 107.795 614.436 109.085C612.32 115.585 611.22 123.516 611.625 129.346C612.001 134.769 611.943 135.213 610.845 135.289C610.192 135.334 606.869 135.354 603.46 135.333C597.329 135.295 597.232 135.27 594.555 132.943C592.212 130.906 591.755 130.069 591.148 126.703C590.001 120.346 589.834 118.567 589.456 108.75C589.257 103.592 588.807 98.1671 588.455 96.6935C587.666 93.3894 588.092 61.5455 589.096 48.804C589.488 43.8308 590.207 37.1999 590.695 34.0687C591.183 30.9374 591.747 26.1616 591.948 23.4557C592.148 20.7498 592.604 17.9602 592.959 17.2565C593.314 16.5528 593.769 13.9443 593.971 11.4597C594.429 5.81281 595.127 4.62786 599.557 1.97584C602.663 0.116879 603.605 -0.126904 607.016 0.0463119L610.921 0.244354L610.679 13.975C610.546 21.5268 610.145 28.4591 609.788 29.38C609.047 31.2921 608.341 71.6157 608.984 75.2542C609.213 76.5468 609.664 77.6045 609.988 77.6045C610.757 77.6045 614.626 72.2266 618.127 66.2916C619.658 63.6945 621.084 61.4853 621.295 61.3822C621.506 61.279 622.778 59.7561 624.123 57.9977C625.468 56.2392 627.878 53.8283 629.48 52.6401C632.065 50.7216 632.832 50.4913 636.331 50.5833C639.708 50.6721 640.551 50.9594 642.228 52.592C643.305 53.6397 644.931 55.7025 645.842 57.1761C651.258 65.9363 651.763 70.0403 652.113 108.13L652.397 138.991L649.971 142.053C647.784 144.813 645.397 146.672 644.201 146.545C643.957 146.519 642.862 145.992 641.769 145.374ZM501.571 138.025C498.892 136.494 493.974 131.534 493.472 129.856C492.814 127.656 489.226 128.518 485.414 131.791C483.968 133.033 482.234 134.083 478.041 136.258C475.059 137.804 473.807 138.04 468.478 138.06C463.116 138.079 462.042 137.885 459.912 136.499C456.826 134.491 456.128 133.906 454.433 131.91C453.676 131.018 452.566 129.745 451.967 129.081C451.368 128.416 450.701 127.124 450.485 126.209C450.268 125.294 449.692 124.194 449.206 123.766C448.719 123.337 448.311 122.345 448.3 121.561C448.289 120.777 447.875 119.568 447.379 118.874C446.883 118.179 446.302 116.22 446.088 114.52C445.874 112.82 445.294 110.293 444.799 108.904C443.687 105.78 443.543 88.0242 444.606 85.1835C444.994 84.1465 445.556 80.6241 445.855 77.356C446.154 74.0879 446.688 71.044 447.042 70.5917C447.396 70.1395 447.95 68.2924 448.273 66.487C449.563 59.2773 452.992 54.1741 456.553 54.1649C457.087 54.1635 458.934 55.6944 460.658 57.5667C462.381 59.4391 464.829 61.419 466.097 61.9666C468.686 63.0844 469.403 64.7119 468.124 66.5669C467.651 67.2529 467.264 68.7096 467.264 69.8041C467.264 70.8985 466.855 73.3275 466.354 75.2018C463.591 85.5517 462.698 100.739 464.407 108.318C464.959 110.766 465.543 113.424 465.705 114.224C465.868 115.024 466.737 116.607 467.636 117.74C469.042 119.513 469.694 119.801 472.292 119.801C475.006 119.801 480.222 117.965 482.056 116.363C482.43 116.037 484.227 114.542 486.05 113.04L489.365 110.31L489.424 92.1157C489.487 72.8494 489.95 64.4818 491.327 57.7013L492.172 53.5376L495.031 52.7895C499.873 51.5226 501.994 51.2926 501.994 52.0347C501.994 52.4185 502.634 52.927 503.415 53.1647C507.584 54.4326 510.171 55.9255 510.362 57.1743C510.475 57.9123 510.175 60.3244 509.695 62.5347C508.329 68.8307 508.368 108.115 509.748 116.117C511.766 127.824 512.112 132.728 511.01 134.027C510.053 135.153 504.361 139.254 503.833 139.197C503.69 139.182 502.672 138.654 501.571 138.025ZM139.873 134.162C138.843 133.592 137.564 132.681 137.031 132.138C136.499 131.594 134.926 130.305 133.537 129.273C129.569 126.324 128.789 121.987 128.796 102.902C128.799 94.5279 129.103 85.4857 129.472 82.8081C131.105 70.9682 130.791 71.9342 133.083 71.7004C134.334 71.5726 137.053 72.3019 139.949 73.5422C142.586 74.6715 145.245 75.5956 145.858 75.5956C146.472 75.5956 147.592 76.1271 148.349 76.7768C149.636 77.8826 149.723 78.5145 149.702 86.6562C149.69 91.4401 149.496 102.136 149.271 110.424C148.866 125.311 148.839 125.546 146.992 129.717C145.727 132.572 144.613 134.144 143.551 134.573C141.642 135.343 142.1 135.394 139.873 134.162ZM173.507 134.751C172.915 134.586 172.274 133.924 172.081 133.281C171.889 132.638 171.606 121.961 171.454 109.555C171.194 88.3945 170.405 76.9944 169.072 75.1424C168.66 74.5694 167.997 74.5424 166.642 75.0434C164.286 75.9144 162.9 75.3662 162.9 73.5631C162.9 71.2402 163.979 69.7799 168.563 65.9006C172.502 62.5672 173.237 62.2001 175.969 62.2035C178.701 62.206 179.303 62.5101 182.034 65.252C183.975 67.2021 185.451 68.1753 186.138 67.9592C186.728 67.7736 188.029 67.4144 189.028 67.1611C190.027 66.9078 192.676 65.6878 194.915 64.4501C198.968 62.209 199.021 62.1997 207.825 62.1997C216.155 62.1997 216.823 62.2981 219.405 63.9033C220.913 64.8402 223.275 67.1761 224.655 69.0941C226.764 72.0241 227.386 73.6764 228.552 79.4314C229.837 85.7772 229.924 87.7291 229.729 105.952C229.489 128.429 229.578 128.922 233.43 126.511C236.072 124.858 235.927 124.855 236.35 126.573C236.613 127.64 235.885 128.87 233.376 131.596L230.053 135.206L225.997 135.18C222.653 135.161 221.61 134.869 220.054 133.52C218.396 132.083 218.107 131.295 217.667 127.014C217.391 124.335 217.031 112.95 216.867 101.715C216.702 90.4791 216.266 79.9301 215.897 78.2723C215.067 74.5386 212.817 70.2465 211.186 69.2845C210.511 68.8862 209.277 68.033 208.445 67.3883C206.264 65.6989 198.22 65.7975 194.789 67.5557C193.399 68.2675 191.974 68.8601 191.621 68.8726C190.117 68.9259 184.422 75.0674 183.672 77.4442C183.086 79.303 182.921 86.2876 183.032 104.597C183.193 130.978 182.993 133.094 180.217 134.436C178.65 135.193 175.607 135.337 173.507 134.751ZM427.482 130.923C417.561 125.631 414.195 123.754 408.854 120.536C405.728 118.652 402.745 116.812 402.224 116.445C401.703 116.079 400.608 115.475 399.792 115.102C398.975 114.729 396.844 113.446 395.056 112.249C391.121 109.616 390.177 108.996 386.121 106.376C381.535 103.413 381.166 103.192 380.122 102.777C379.602 102.571 376.05 100.28 372.229 97.6876C364.376 92.3584 362.604 91.6224 361.495 93.2306C361.052 93.8736 360.58 98.2279 360.342 103.878C359.998 112.055 358.663 122.859 357.929 123.398C357.726 123.548 353.157 124.684 349.146 125.582C347.15 126.029 341.622 122.764 340.559 120.51C340.047 119.425 339.93 115.152 340.167 106.155C340.626 88.6604 340.235 86.8076 334.913 81.3C329.165 75.3516 329.542 73.6177 336.589 73.5953C339.94 73.584 341.447 72.6257 342.089 70.0949C342.826 67.193 341.993 30.1952 341.171 29.3233C340.133 28.2229 338.411 29.0478 335.281 32.1436C331.053 36.3246 330.237 38.8632 330.237 47.8248C330.237 53.9843 330.041 55.6141 329.193 56.5141C327.017 58.8216 321.193 55.8435 317.303 50.435C314.048 45.9079 314.086 34.6473 317.377 28.4006C320.562 22.3572 329.768 13.8917 336.377 10.9298C345.081 7.0293 345.504 6.95877 360.231 6.95046C374.005 6.9429 379.11 7.55707 386.121 10.0666C387.163 10.4396 389.141 11.0352 390.517 11.3904C391.892 11.7456 393.313 12.2802 393.674 12.5785C394.035 12.8767 395.183 13.3235 396.225 13.5712C398.012 13.9961 400.205 14.9434 404.327 17.0713C405.31 17.5788 406.447 18.0026 406.853 18.013C407.546 18.0319 411.081 20.3482 418.26 25.4911C424.266 29.7943 429.36 36.1449 430.736 41.0455C431.483 43.7045 430.214 53.8173 428.999 54.8863C428.512 55.3152 428.113 56.1302 428.113 56.6975C428.113 59.5337 418.689 70.907 416.338 70.907C415.869 70.907 415.484 71.1864 415.484 71.5277C415.484 72.4863 408.105 76.7913 398.327 81.5366C395.625 82.8482 393.963 84.0883 393.691 84.9969C393.458 85.7758 393.365 86.5009 393.483 86.6082C394.246 87.2986 404.724 94.2212 406.012 94.8857C406.881 95.3336 408.49 96.2795 409.588 96.9878C410.687 97.6962 413.812 99.5381 416.534 101.081C419.256 102.624 423.085 104.906 425.042 106.153C426.999 107.399 430.196 109.194 432.146 110.141C434.096 111.087 435.691 112.141 435.691 112.483C435.691 112.824 436.107 113.103 436.616 113.103C437.125 113.103 437.855 113.725 438.238 114.485C438.828 115.655 438.59 116.314 436.682 118.784C435.442 120.389 434.428 122.118 434.428 122.627C434.428 123.136 434.121 123.878 433.746 124.276C433.371 124.674 433.015 126.744 432.956 128.876C432.898 131.008 432.565 132.833 432.218 132.932C431.871 133.032 429.74 132.127 427.482 130.923ZM373.808 69.5774C375.718 69.1463 378.56 68.3634 380.122 67.8377C381.685 67.3119 383.527 66.8832 384.215 66.8851C385.476 66.8876 390.04 65.1346 395.278 62.6341C399.809 60.4705 405.148 56.3355 408.222 52.6089C410.593 49.7333 411.064 48.7102 411.064 46.4354C411.064 42.4842 408.483 39.9079 400.329 35.7194C393.791 32.361 386.572 29.3916 384.846 29.351C384.158 29.3359 382.459 28.8874 381.07 28.3568C379.68 27.8261 374.737 27.0652 370.085 26.6658C363.219 26.0763 361.477 26.1059 360.833 26.8226C359.414 28.4008 361.164 67.5019 362.776 70.2691C363.274 71.1236 368.373 70.804 373.808 69.5774ZM139.895 62.9439C139.704 62.6162 138.764 62.1451 137.805 61.8969C135.015 61.1739 131.38 58.1666 130.253 55.6492C129.365 53.6622 129.326 52.8732 129.985 50.2268C131.451 44.3463 134.864 42.565 139.853 45.0764C141.635 45.9732 143.004 46.1545 145.498 45.824C148.207 45.465 149.055 45.6158 150.29 46.6766C151.669 47.8608 151.793 48.4668 151.82 54.1413C151.849 60.2152 151.818 60.3437 149.955 61.9249C148.416 63.2315 147.328 63.5334 144.151 63.536C142.001 63.5379 140.086 63.2715 139.895 62.9439Z" fill="#F50203"/>
</svg>
